<svg aria-roledescription="er" viewBox="0 0 626.244873046875 488" style="max-width: 626.245px; background-color: white;" xmlns:xlink="http://www.w3.org/1999/xlink" xmlns="http://www.w3.org/2000/svg" width="100%" id="mermaid-0"><style>#mermaid-0{font-family:"trebuchet ms",verdana,arial,sans-serif;font-size:16px;fill:#000000;}#mermaid-0 .error-icon{fill:#552222;}#mermaid-0 .error-text{fill:#552222;stroke:#552222;}#mermaid-0 .edge-thickness-normal{stroke-width:2px;}#mermaid-0 .edge-thickness-thick{stroke-width:3.5px;}#mermaid-0 .edge-pattern-solid{stroke-dasharray:0;}#mermaid-0 .edge-pattern-dashed{stroke-dasharray:3;}#mermaid-0 .edge-pattern-dotted{stroke-dasharray:2;}#mermaid-0 .marker{fill:#000000;stroke:#000000;}#mermaid-0 .marker.cross{stroke:#000000;}#mermaid-0 svg{font-family:"trebuchet ms",verdana,arial,sans-serif;font-size:16px;}#mermaid-0 .entityBox{fill:#cde498;stroke:#13540c;}#mermaid-0 .attributeBoxOdd{fill:#ffffff;stroke:#13540c;}#mermaid-0 .attributeBoxEven{fill:#f2f2f2;stroke:#13540c;}#mermaid-0 .relationshipLabelBox{fill:hsl(78.1578947368, 58.4615384615%, 84.5098039216%);opacity:0.7;background-color:hsl(78.1578947368, 58.4615384615%, 84.5098039216%);}#mermaid-0 .relationshipLabelBox rect{opacity:0.5;}#mermaid-0 .relationshipLine{stroke:#000000;}#mermaid-0 .entityTitleText{text-anchor:middle;font-size:18px;fill:#000000;}#mermaid-0 :root{--mermaid-font-family:"trebuchet ms",verdana,arial,sans-serif;}</style><g/><defs><marker orient="auto" markerHeight="18" markerWidth="18" refY="9" refX="0" id="ONLY_ONE_START"><path d="M9,0 L9,18 M15,0 L15,18" fill="none" stroke="gray"/></marker></defs><defs><marker orient="auto" markerHeight="18" markerWidth="18" refY="9" refX="18" id="ONLY_ONE_END"><path d="M3,0 L3,18 M9,0 L9,18" fill="none" stroke="gray"/></marker></defs><defs><marker orient="auto" markerHeight="18" markerWidth="30" refY="9" refX="0" id="ZERO_OR_ONE_START"><circle r="6" cy="9" cx="21" fill="white" stroke="gray"/><path d="M9,0 L9,18" fill="none" stroke="gray"/></marker></defs><defs><marker orient="auto" markerHeight="18" markerWidth="30" refY="9" refX="30" id="ZERO_OR_ONE_END"><circle r="6" cy="9" cx="9" fill="white" stroke="gray"/><path d="M21,0 L21,18" fill="none" stroke="gray"/></marker></defs><defs><marker orient="auto" markerHeight="36" markerWidth="45" refY="18" refX="18" id="ONE_OR_MORE_START"><path d="M0,18 Q 18,0 36,18 Q 18,36 0,18 M42,9 L42,27" fill="none" stroke="gray"/></marker></defs><defs><marker orient="auto" markerHeight="36" markerWidth="45" refY="18" refX="27" id="ONE_OR_MORE_END"><path d="M3,9 L3,27 M9,18 Q27,0 45,18 Q27,36 9,18" fill="none" stroke="gray"/></marker></defs><defs><marker orient="auto" markerHeight="36" markerWidth="57" refY="18" refX="18" id="ZERO_OR_MORE_START"><circle r="6" cy="18" cx="48" fill="white" stroke="gray"/><path d="M0,18 Q18,0 36,18 Q18,36 0,18" fill="none" stroke="gray"/></marker></defs><defs><marker orient="auto" markerHeight="36" markerWidth="57" refY="18" refX="39" id="ZERO_OR_MORE_END"><circle r="6" cy="18" cx="9" fill="white" stroke="gray"/><path d="M21,18 Q39,0 57,18 Q39,36 21,18" fill="none" stroke="gray"/></marker></defs><path style="stroke: gray; fill: none;" marker-start="url(#ZERO_OR_MORE_START)" marker-end="url(#ONLY_ONE_END)" d="M70,256L70,268C70,280,70,304,96.71793365478516,327.72308908545176C123.43586730957031,351.4461781709035,176.87173461914062,374.89235634180704,203.58966827392578,386.61544542725875L230.30760192871094,398.3385345127105" class="er relationshipLine"/><path style="stroke: gray; fill: none;" marker-start="url(#ZERO_OR_MORE_START)" marker-end="url(#ONLY_ONE_END)" d="M286.5132141113281,278L286.5132141113281,286.3333333333333C286.5132141113281,294.6666666666667,286.5132141113281,311.3333333333333,286.5132141113281,328C286.5132141113281,344.6666666666667,286.5132141113281,361.3333333333333,286.5132141113281,369.6666666666667L286.5132141113281,378" class="er relationshipLine"/><path style="stroke: gray; fill: none;" marker-start="url(#ZERO_OR_MORE_START)" marker-end="url(#ONLY_ONE_END)" d="M236.51321411132812,88L236.51321411132812,96.33333333333333C236.51321411132812,104.66666666666667,236.51321411132812,121.33333333333333,240.8991790236088,138C245.28514393588952,154.66666666666666,254.05707376045095,171.33333333333334,258.44303867273163,179.66666666666666L262.82900358501234,188" class="er relationshipLine"/><path style="stroke: gray; fill: none;" marker-start="url(#ZERO_OR_MORE_START)" marker-end="url(#ONLY_ONE_END)" d="M552.3103256225586,267L552.3103256225586,277.1666666666667C552.3103256225586,287.3333333333333,552.3103256225586,307.6666666666667,517.3784090677897,330.3185407678123C482.4464925130208,352.9704148689579,412.5826594034831,377.94082973791575,377.6507428487142,390.42603717239473L342.7188262939453,402.91124460687365" class="er relationshipLine"/><path style="stroke: gray; fill: none;" marker-start="url(#ZERO_OR_MORE_START)" marker-end="url(#ONLY_ONE_END)" d="M516.0008018130347,77L522.0523891146221,87.16666666666667C528.1039764162093,97.33333333333333,540.207151019384,117.66666666666667,546.2587383209712,138C552.3103256225586,158.33333333333334,552.3103256225586,178.66666666666666,552.3103256225586,188.83333333333334L552.3103256225586,199" class="er relationshipLine"/><path style="stroke: gray; fill: none;" marker-start="url(#ZERO_OR_MORE_START)" marker-end="url(#ONLY_ONE_END)" d="M472.12998045058475,77L458.78939309195863,87.16666666666667C445.44880573333256,97.33333333333333,418.7676310160803,117.66666666666667,396.1662329392525,136.16666666666666C373.5648348624247,154.66666666666666,355.0432134260211,171.33333333333334,345.78240270781936,179.66666666666666L336.5215919896176,188" class="er relationshipLine"/><g transform="translate(230.30760192871094,378 )" id="entity-users-385c9b7d-175f-498a-ae48-c5a8d266453c"><rect height="90" width="112.41122436523438" y="0" x="0" class="er entityBox"/><text style="dominant-baseline: middle; text-anchor: middle; font-size: 12px;" transform="translate(56.20561218261719,12)" y="0" x="0" id="text-entity-users-385c9b7d-175f-498a-ae48-c5a8d266453c" class="er entityLabel">users</text><rect height="22" width="37.39605712890625" y="24" x="0" class="er attributeBoxOdd"/><text style="dominant-baseline: middle; font-size: 10.2px;" transform="translate(5,35)" y="0" x="0" id="text-entity-users-385c9b7d-175f-498a-ae48-c5a8d266453c-attr-1-type" class="er entityLabel">String</text><rect height="22" width="52.327484130859375" y="24" x="37.39605712890625" class="er attributeBoxOdd"/><text style="dominant-baseline: middle; font-size: 10.2px;" transform="translate(42.39605712890625,35)" y="0" x="0" id="text-entity-users-385c9b7d-175f-498a-ae48-c5a8d266453c-attr-1-name" class="er entityLabel">email</text><rect height="22" width="22.68768310546875" y="24" x="89.72354125976562" class="er attributeBoxOdd"/><text style="dominant-baseline: middle; font-size: 10.2px;" transform="translate(94.72354125976562,35)" y="0" x="0" id="text-entity-users-385c9b7d-175f-498a-ae48-c5a8d266453c-attr-1-key" class="er entityLabel">PK</text><rect height="22" width="37.39605712890625" y="46" x="0" class="er attributeBoxEven"/><text style="dominant-baseline: middle; font-size: 10.2px;" transform="translate(5,57)" y="0" x="0" id="text-entity-users-385c9b7d-175f-498a-ae48-c5a8d266453c-attr-2-type" class="er entityLabel">String</text><rect height="22" width="52.327484130859375" y="46" x="37.39605712890625" class="er attributeBoxEven"/><text style="dominant-baseline: middle; font-size: 10.2px;" transform="translate(42.39605712890625,57)" y="0" x="0" id="text-entity-users-385c9b7d-175f-498a-ae48-c5a8d266453c-attr-2-name" class="er entityLabel">password</text><rect height="22" width="22.68768310546875" y="46" x="89.72354125976562" class="er attributeBoxEven"/><text style="dominant-baseline: middle; font-size: 10.2px;" transform="translate(94.72354125976562,57)" y="0" x="0" id="text-entity-users-385c9b7d-175f-498a-ae48-c5a8d266453c-attr-2-key" class="er entityLabel"/><rect height="22" width="37.39605712890625" y="68" x="0" class="er attributeBoxOdd"/><text style="dominant-baseline: middle; font-size: 10.2px;" transform="translate(5,79)" y="0" x="0" id="text-entity-users-385c9b7d-175f-498a-ae48-c5a8d266453c-attr-3-type" class="er entityLabel">String</text><rect height="22" width="52.327484130859375" y="68" x="37.39605712890625" class="er attributeBoxOdd"/><text style="dominant-baseline: middle; font-size: 10.2px;" transform="translate(42.39605712890625,79)" y="0" x="0" id="text-entity-users-385c9b7d-175f-498a-ae48-c5a8d266453c-attr-3-name" class="er entityLabel">name</text><rect height="22" width="22.68768310546875" y="68" x="89.72354125976562" class="er attributeBoxOdd"/><text style="dominant-baseline: middle; font-size: 10.2px;" transform="translate(94.72354125976562,79)" y="0" x="0" id="text-entity-users-385c9b7d-175f-498a-ae48-c5a8d266453c-attr-3-key" class="er entityLabel"/></g><g transform="translate(20,210 )" id="entity-tokens-1ca6752b-36a2-43c4-b06a-bdbdc60810e8"><rect height="46" width="100" y="0" x="0" class="er entityBox"/><text style="dominant-baseline: middle; text-anchor: middle; font-size: 12px;" transform="translate(50,12)" y="0" x="0" id="text-entity-tokens-1ca6752b-36a2-43c4-b06a-bdbdc60810e8" class="er entityLabel">tokens</text><rect height="22" width="44.39861551920573" y="24" x="0" class="er attributeBoxOdd"/><text style="dominant-baseline: middle; font-size: 10.2px;" transform="translate(5,35)" y="0" x="0" id="text-entity-tokens-1ca6752b-36a2-43c4-b06a-bdbdc60810e8-attr-1-type" class="er entityLabel">String</text><rect height="22" width="25.911142985026043" y="24" x="44.39861551920573" class="er attributeBoxOdd"/><text style="dominant-baseline: middle; font-size: 10.2px;" transform="translate(49.39861551920573,35)" y="0" x="0" id="text-entity-tokens-1ca6752b-36a2-43c4-b06a-bdbdc60810e8-attr-1-name" class="er entityLabel">id</text><rect height="22" width="29.69024149576823" y="24" x="70.30975850423177" class="er attributeBoxOdd"/><text style="dominant-baseline: middle; font-size: 10.2px;" transform="translate(75.30975850423177,35)" y="0" x="0" id="text-entity-tokens-1ca6752b-36a2-43c4-b06a-bdbdc60810e8-attr-1-key" class="er entityLabel">PK</text></g><g transform="translate(220,188 )" id="entity-habits-3ce1e3aa-9bcc-4dfa-85b4-96a9f6f8e3d2"><rect height="90" width="133.02642822265625" y="0" x="0" class="er entityBox"/><text style="dominant-baseline: middle; text-anchor: middle; font-size: 12px;" transform="translate(66.51321411132812,12)" y="0" x="0" id="text-entity-habits-3ce1e3aa-9bcc-4dfa-85b4-96a9f6f8e3d2" class="er entityLabel">habits</text><rect height="22" width="54.095550537109375" y="24" x="0" class="er attributeBoxOdd"/><text style="dominant-baseline: middle; font-size: 10.2px;" transform="translate(5,35)" y="0" x="0" id="text-entity-habits-3ce1e3aa-9bcc-4dfa-85b4-96a9f6f8e3d2-attr-1-type" class="er entityLabel">String</text><rect height="22" width="56.243194580078125" y="24" x="54.095550537109375" class="er attributeBoxOdd"/><text style="dominant-baseline: middle; font-size: 10.2px;" transform="translate(59.095550537109375,35)" y="0" x="0" id="text-entity-habits-3ce1e3aa-9bcc-4dfa-85b4-96a9f6f8e3d2-attr-1-name" class="er entityLabel">id</text><rect height="22" width="22.68768310546875" y="24" x="110.3387451171875" class="er attributeBoxOdd"/><text style="dominant-baseline: middle; font-size: 10.2px;" transform="translate(115.3387451171875,35)" y="0" x="0" id="text-entity-habits-3ce1e3aa-9bcc-4dfa-85b4-96a9f6f8e3d2-attr-1-key" class="er entityLabel">PK</text><rect height="22" width="54.095550537109375" y="46" x="0" class="er attributeBoxEven"/><text style="dominant-baseline: middle; font-size: 10.2px;" transform="translate(5,57)" y="0" x="0" id="text-entity-habits-3ce1e3aa-9bcc-4dfa-85b4-96a9f6f8e3d2-attr-2-type" class="er entityLabel">String</text><rect height="22" width="56.243194580078125" y="46" x="54.095550537109375" class="er attributeBoxEven"/><text style="dominant-baseline: middle; font-size: 10.2px;" transform="translate(59.095550537109375,57)" y="0" x="0" id="text-entity-habits-3ce1e3aa-9bcc-4dfa-85b4-96a9f6f8e3d2-attr-2-name" class="er entityLabel">title</text><rect height="22" width="22.68768310546875" y="46" x="110.3387451171875" class="er attributeBoxEven"/><text style="dominant-baseline: middle; font-size: 10.2px;" transform="translate(115.3387451171875,57)" y="0" x="0" id="text-entity-habits-3ce1e3aa-9bcc-4dfa-85b4-96a9f6f8e3d2-attr-2-key" class="er entityLabel"/><rect height="22" width="54.095550537109375" y="68" x="0" class="er attributeBoxOdd"/><text style="dominant-baseline: middle; font-size: 10.2px;" transform="translate(5,79)" y="0" x="0" id="text-entity-habits-3ce1e3aa-9bcc-4dfa-85b4-96a9f6f8e3d2-attr-3-type" class="er entityLabel">DateTime</text><rect height="22" width="56.243194580078125" y="68" x="54.095550537109375" class="er attributeBoxOdd"/><text style="dominant-baseline: middle; font-size: 10.2px;" transform="translate(59.095550537109375,79)" y="0" x="0" id="text-entity-habits-3ce1e3aa-9bcc-4dfa-85b4-96a9f6f8e3d2-attr-3-name" class="er entityLabel">createdAt</text><rect height="22" width="22.68768310546875" y="68" x="110.3387451171875" class="er attributeBoxOdd"/><text style="dominant-baseline: middle; font-size: 10.2px;" transform="translate(115.3387451171875,79)" y="0" x="0" id="text-entity-habits-3ce1e3aa-9bcc-4dfa-85b4-96a9f6f8e3d2-attr-3-key" class="er entityLabel"/></g><g transform="translate(175.36672973632812,20 )" id="entity-habitweekdays-6e72f7e7-c57a-4549-8653-262da71e78f0"><rect height="68" width="122.29296875" y="0" x="0" class="er entityBox"/><text style="dominant-baseline: middle; text-anchor: middle; font-size: 12px;" transform="translate(61.146484375,12)" y="0" x="0" id="text-entity-habitweekdays-6e72f7e7-c57a-4549-8653-262da71e78f0" class="er entityLabel">habit_week_days</text><rect height="22" width="40.640523274739586" y="24" x="0" class="er attributeBoxOdd"/><text style="dominant-baseline: middle; font-size: 10.2px;" transform="translate(5,35)" y="0" x="0" id="text-entity-habitweekdays-6e72f7e7-c57a-4549-8653-262da71e78f0-attr-1-type" class="er entityLabel">String</text><rect height="22" width="55.720296223958336" y="24" x="40.640523274739586" class="er attributeBoxOdd"/><text style="dominant-baseline: middle; font-size: 10.2px;" transform="translate(45.640523274739586,35)" y="0" x="0" id="text-entity-habitweekdays-6e72f7e7-c57a-4549-8653-262da71e78f0-attr-1-name" class="er entityLabel">id</text><rect height="22" width="25.932149251302082" y="24" x="96.36081949869792" class="er attributeBoxOdd"/><text style="dominant-baseline: middle; font-size: 10.2px;" transform="translate(101.36081949869792,35)" y="0" x="0" id="text-entity-habitweekdays-6e72f7e7-c57a-4549-8653-262da71e78f0-attr-1-key" class="er entityLabel">PK</text><rect height="22" width="40.640523274739586" y="46" x="0" class="er attributeBoxEven"/><text style="dominant-baseline: middle; font-size: 10.2px;" transform="translate(5,57)" y="0" x="0" id="text-entity-habitweekdays-6e72f7e7-c57a-4549-8653-262da71e78f0-attr-2-type" class="er entityLabel">Int</text><rect height="22" width="55.720296223958336" y="46" x="40.640523274739586" class="er attributeBoxEven"/><text style="dominant-baseline: middle; font-size: 10.2px;" transform="translate(45.640523274739586,57)" y="0" x="0" id="text-entity-habitweekdays-6e72f7e7-c57a-4549-8653-262da71e78f0-attr-2-name" class="er entityLabel">weekDay</text><rect height="22" width="25.932149251302082" y="46" x="96.36081949869792" class="er attributeBoxEven"/><text style="dominant-baseline: middle; font-size: 10.2px;" transform="translate(101.36081949869792,57)" y="0" x="0" id="text-entity-habitweekdays-6e72f7e7-c57a-4549-8653-262da71e78f0-attr-2-key" class="er entityLabel"/></g><g transform="translate(498.3758010864258,199 )" id="entity-days-91c26a22-2f9d-451a-b90a-343b1390411c"><rect height="68" width="107.86904907226562" y="0" x="0" class="er entityBox"/><text style="dominant-baseline: middle; text-anchor: middle; font-size: 12px;" transform="translate(53.93452453613281,12)" y="0" x="0" id="text-entity-days-91c26a22-2f9d-451a-b90a-343b1390411c" class="er entityLabel">days</text><rect height="22" width="54.095550537109375" y="24" x="0" class="er attributeBoxOdd"/><text style="dominant-baseline: middle; font-size: 10.2px;" transform="translate(5,35)" y="0" x="0" id="text-entity-days-91c26a22-2f9d-451a-b90a-343b1390411c-attr-1-type" class="er entityLabel">String</text><rect height="22" width="31.0858154296875" y="24" x="54.095550537109375" class="er attributeBoxOdd"/><text style="dominant-baseline: middle; font-size: 10.2px;" transform="translate(59.095550537109375,35)" y="0" x="0" id="text-entity-days-91c26a22-2f9d-451a-b90a-343b1390411c-attr-1-name" class="er entityLabel">id</text><rect height="22" width="22.68768310546875" y="24" x="85.18136596679688" class="er attributeBoxOdd"/><text style="dominant-baseline: middle; font-size: 10.2px;" transform="translate(90.18136596679688,35)" y="0" x="0" id="text-entity-days-91c26a22-2f9d-451a-b90a-343b1390411c-attr-1-key" class="er entityLabel">PK</text><rect height="22" width="54.095550537109375" y="46" x="0" class="er attributeBoxEven"/><text style="dominant-baseline: middle; font-size: 10.2px;" transform="translate(5,57)" y="0" x="0" id="text-entity-days-91c26a22-2f9d-451a-b90a-343b1390411c-attr-2-type" class="er entityLabel">DateTime</text><rect height="22" width="31.0858154296875" y="46" x="54.095550537109375" class="er attributeBoxEven"/><text style="dominant-baseline: middle; font-size: 10.2px;" transform="translate(59.095550537109375,57)" y="0" x="0" id="text-entity-days-91c26a22-2f9d-451a-b90a-343b1390411c-attr-2-name" class="er entityLabel">date</text><rect height="22" width="22.68768310546875" y="46" x="85.18136596679688" class="er attributeBoxEven"/><text style="dominant-baseline: middle; font-size: 10.2px;" transform="translate(90.18136596679688,57)" y="0" x="0" id="text-entity-days-91c26a22-2f9d-451a-b90a-343b1390411c-attr-2-key" class="er entityLabel"/></g><g transform="translate(452.3103256225586,31 )" id="entity-dayhabits-20ecc635-c929-4c00-a300-65dafbd21c83"><rect height="46" width="100" y="0" x="0" class="er entityBox"/><text style="dominant-baseline: middle; text-anchor: middle; font-size: 12px;" transform="translate(50,12)" y="0" x="0" id="text-entity-dayhabits-20ecc635-c929-4c00-a300-65dafbd21c83" class="er entityLabel">day_habits</text><rect height="22" width="44.39861551920573" y="24" x="0" class="er attributeBoxOdd"/><text style="dominant-baseline: middle; font-size: 10.2px;" transform="translate(5,35)" y="0" x="0" id="text-entity-dayhabits-20ecc635-c929-4c00-a300-65dafbd21c83-attr-1-type" class="er entityLabel">String</text><rect height="22" width="25.911142985026043" y="24" x="44.39861551920573" class="er attributeBoxOdd"/><text style="dominant-baseline: middle; font-size: 10.2px;" transform="translate(49.39861551920573,35)" y="0" x="0" id="text-entity-dayhabits-20ecc635-c929-4c00-a300-65dafbd21c83-attr-1-name" class="er entityLabel">id</text><rect height="22" width="29.69024149576823" y="24" x="70.30975850423177" class="er attributeBoxOdd"/><text style="dominant-baseline: middle; font-size: 10.2px;" transform="translate(75.30975850423177,35)" y="0" x="0" id="text-entity-dayhabits-20ecc635-c929-4c00-a300-65dafbd21c83-attr-1-key" class="er entityLabel">PK</text></g><rect height="14" width="23.958984375" y="341.38946533203125" x="114.05086517333984" class="er relationshipLabelBox"/><text style="text-anchor: middle; dominant-baseline: middle; font-size: 12px;" y="348.38946533203125" x="126.03035736083984" id="rel1" class="er relationshipLabel">user</text><rect height="14" width="23.958984375" y="321" x="274.5337219238281" class="er relationshipLabelBox"/><text style="text-anchor: middle; dominant-baseline: middle; font-size: 12px;" y="328" x="286.5132141113281" id="rel2" class="er relationshipLabel">user</text><rect height="14" width="27.96875" y="133.108642578125" x="227.49281311035156" class="er relationshipLabelBox"/><text style="text-anchor: middle; dominant-baseline: middle; font-size: 12px;" y="140.108642578125" x="241.47718811035156" id="rel3" class="er relationshipLabel">habit</text><rect height="14" width="23.958984375" y="348.86773681640625" x="455.34991455078125" class="er relationshipLabelBox"/><text style="text-anchor: middle; dominant-baseline: middle; font-size: 12px;" y="355.86773681640625" x="467.32940673828125" id="rel4" class="er relationshipLabel">user</text><rect height="14" width="19.990234375" y="127.788330078125" x="535.2584228515625" class="er relationshipLabelBox"/><text style="text-anchor: middle; dominant-baseline: middle; font-size: 12px;" y="134.788330078125" x="545.2535400390625" id="rel5" class="er relationshipLabel">day</text><rect height="14" width="27.96875" y="123.72404479980469" x="388.88128662109375" class="er relationshipLabelBox"/><text style="text-anchor: middle; dominant-baseline: middle; font-size: 12px;" y="130.7240447998047" x="402.86566162109375" id="rel6" class="er relationshipLabel">habit</text></svg>